<?xml version="1.0" encoding="iso-8859-1"?>
<!-- Generator: Adobe Illustrator 23.0.1, SVG Export Plug-In . SVG Version: 6.00 Build 0)  -->
<svg version="1.1" id="Layer_1" xmlns="http://www.w3.org/2000/svg" xmlns:xlink="http://www.w3.org/1999/xlink" x="0px" y="0px"
	 viewBox="244 244 512 512" style="enable-background:new 244 244 512 512;" xml:space="preserve">
<g id="XMLID_21_">
	<path id="XMLID_23_" style="fill:#D34A47;" d="M554.976,711.441l4.314-71.986l11.956-20.339c0,0-27.118,11.094-72.603,11.094
		c-45.361,0-72.11-10.848-72.11-10.848l13.313,22.188l4.684,69.891c0,7.519,24.653,13.559,55.222,13.559
		C530.323,725,554.976,718.96,554.976,711.441"/>
	<path id="XMLID_27_" style="fill:#D34A47;" d="M541.417,375.545l9.121-35.87l50.169-52.757l-13.313-11.217l-53.127,56.209
		l-10.477,42.773c-7.642-0.246-15.531-0.37-23.79-0.37c-55.962,0-101.324,6.41-101.324,14.299c0,7.889,45.362,14.298,101.324,14.298
		s101.324-6.41,101.324-14.298C601.324,382.695,576.671,377.764,541.417,375.545"/>
	<path id="XMLID_28_" style="fill:#FFFFFF;" d="M536.116,395.638c0,0-1.972,0.493-7.765,0.493c-5.794,0-9.861,0-11.463-1.479
		c-0.494-0.37-0.74-1.233-0.616-1.726c0-0.986,0.739-1.603,1.602-1.972l0.863,1.356c-0.37,0.123-0.616,0.246-0.616,0.493
		c0,0.74,5.916,1.356,10.477,1.233c4.56,0,9.984-0.37,9.984-1.233c0-0.246-0.37-0.493-1.109-0.616l0.863-1.356
		c1.109,0.37,2.219,1.11,2.219,2.342C540.43,395.021,537.842,395.391,536.116,395.638"/>
	<path id="XMLID_29_" style="fill:#D34A47;" d="M600.584,287.042c1.233-1.479-0.616-5.177-4.314-8.382
		c-3.575-3.082-7.643-4.561-8.875-3.082c-1.233,1.479,0.616,5.177,4.314,8.382C595.283,287.165,599.228,288.521,600.584,287.042"/>
	<path id="XMLID_30_" style="fill:#D34A47;" d="M552.634,535.789c-1.233-11.463,25.022-27.981,18.243-28.598
		c-14.422,0.863-21.695,17.011-28.967,33.898c-2.712,6.163-11.833,32.665-17.75,29.337c-6.04-3.205,7.765-25.023,11.587-37.842
		c-4.438,3.205-20.708,15.901-25.022,4.068c-6.78,5.794-21.202,8.875-19.6-6.286c-3.575,6.409-11.71,15.285-21.324,11.587
		c-12.696-4.807,7.396-45.362,12.326-43.389c5.054,2.096-0.986,11.217-2.589,14.915c-3.451,7.889-7.396,17.75-4.807,19.846
		c4.561,3.451,17.01-13.19,17.257-13.559c2.342-3.082,8.998-23.174,14.299-20.832c5.3,2.342-13.313,28.844-6.41,34.144
		c1.356,1.109,7.15-0.616,10.724-4.438c2.219-2.465,1.479-7.889,8.998-25.886c7.519-17.996,14.299-40.43,19.476-38.828
		c5.177,1.726,0.862,13.19-0.987,17.504c-8.752,20.215-23.79,53.497-16.764,50.908c7.15-2.465,10.848-2.711,17.751-10.847
		c7.026-8.136,6.656-21.571,11.34-21.324c4.684,0.246,3.821,4.56,2.712,7.889c4.56-5.177,21.695-16.271,25.762-5.3
		c4.931,12.942-24.529,31.555-17.134,30.693c7.149-0.987,18.736-8.259,23.666-14.915l13.559-122.155
		c0,0-13.682,11.341-100.707,11.341s-99.228-11.094-99.228-11.094l11.587,111.554c6.163-17.504,20.708-52.758,43.759-51.525
		c10.477,0.494,24.406,20.709,12.45,21.325c-5.054,0.246-5.547-10.108-11.587-11.587c-4.314-1.11-10.355,2.465-14.299,6.286
		c-7.766,7.643-24.407,37.596-22.188,52.511c2.835,19.106,26.255-6.656,30.2-14.299c2.835-5.423,4.684-21.324,10.847-19.599
		c6.163,1.726-0.493,18.12-4.931,32.542c-4.931,16.271-7.642,33.528-13.805,31.556c-6.287-1.972,3.944-23.05,3.575-26.748
		c-5.917,5.424-16.641,19.106-30.57,12.326l7.15,69.274c0,0,19.106,15.039,76.67,15.039c57.565,0,77.287-14.915,77.287-14.915
		l8.875-80.245C577.164,537.391,554.113,549.965,552.634,535.789"/>
</g>
</svg>
